<svg xmlns="http://www.w3.org/2000/svg" viewBox="0 0 1200 620" width="1200" height="620">
  <g transform="translate(552,30) scale(1.7)"><g id="flame">
  <path d="M24 4 C30 14 40 20 40 36 C40 48 33 56 24 56 C15 56 8 48 8 36 C8 28 12 22 15 18 C15 26 19 30 22 29 C19 22 21 10 24 4 Z" fill="none" stroke="#e89b3f" stroke-width="3" stroke-linejoin="round"/>
  <path d="M24 30 C27 34 30 36 30 42 C30 47 27 50 24 50 C21 50 18 47 18 42 C18 38 21 34 24 30 Z" fill="#d95f3b"/>
</g></g>
  <g fill="#f6efe3" transform="translate(100,410) scale(0.13631406761177753)"><g transform="scale(1,-1)"><path transform="translate(0,0)" d="M-15 712V698H63L295 293V14H203V0H533V14H440V331L633 698H720V712H529V698H616L432 349L228 698H307V712Z"/><path transform="translate(844.0,0)" d="M205 354Q205 433 212.0 499.0Q219 565 241.0 613.0Q263 661 305.0 687.5Q347 714 417 714Q492 714 534.5 685.5Q577 657 598.0 608.5Q619 560 623.5 496.5Q628 433 628 363Q628 285 622.5 218.5Q617 152 596.0 103.5Q575 55 533.0 27.5Q491 0 417 0Q361 0 320.5 16.0Q280 32 254.5 72.5Q229 113 217.0 181.5Q205 250 205 354ZM42 354Q42 276 73.0 209.0Q104 142 155.5 92.5Q207 43 275.0 14.5Q343 -14 417 -14Q492 -14 559.5 15.5Q627 45 678.5 96.0Q730 147 760.5 214.5Q791 282 791 357Q791 443 758.5 511.5Q726 580 673.5 628.0Q621 676 553.5 702.0Q486 728 417 728Q353 728 286.0 701.5Q219 675 165.0 626.0Q111 577 76.5 508.0Q42 439 42 354Z"/><path transform="translate(1817.0,0)" d="M272 389V698Q283 699 294.0 700.0Q305 701 316 701Q354 701 378.5 691.0Q403 681 417.0 660.5Q431 640 437.0 608.5Q443 577 443 533Q443 506 439.5 480.0Q436 454 423.0 433.5Q410 413 384.0 401.0Q358 389 313 389ZM127 698V14H35V0H364V14H272V375H338Q385 375 411.0 357.0Q437 339 450.0 309.0Q463 279 466.5 240.5Q470 202 472 161Q473 134 476.5 103.5Q480 73 495.0 47.0Q510 21 541.0 3.5Q572 -14 627 -14Q654 -14 672.0 -10.5Q690 -7 702.5 -1.0Q715 5 724.5 13.5Q734 22 744 32L734 41Q724 31 711.0 19.5Q698 8 678 8Q660 8 650.5 15.0Q641 22 635.5 43.0Q630 64 627.0 102.0Q624 140 619 203Q615 257 598.5 289.0Q582 321 554.0 339.0Q526 357 487.5 366.0Q449 375 400 384V389Q434 392 469.0 401.5Q504 411 532.5 429.0Q561 447 579.0 475.5Q597 504 597 544Q597 594 573.5 627.0Q550 660 514.0 679.5Q478 699 434.5 707.0Q391 715 352 715Q310 715 269.0 713.5Q228 712 186 712H35V698Z"/><path transform="translate(2679.0,0)" d="M205 354Q205 433 212.0 499.0Q219 565 241.0 613.0Q263 661 305.0 687.5Q347 714 417 714Q492 714 534.5 685.5Q577 657 598.0 608.5Q619 560 623.5 496.5Q628 433 628 363Q628 285 622.5 218.5Q617 152 596.0 103.5Q575 55 533.0 27.5Q491 0 417 0Q361 0 320.5 16.0Q280 32 254.5 72.5Q229 113 217.0 181.5Q205 250 205 354ZM42 354Q42 276 73.0 209.0Q104 142 155.5 92.5Q207 43 275.0 14.5Q343 -14 417 -14Q492 -14 559.5 15.5Q627 45 678.5 96.0Q730 147 760.5 214.5Q791 282 791 357Q791 443 758.5 511.5Q726 580 673.5 628.0Q621 676 553.5 702.0Q486 728 417 728Q353 728 286.0 701.5Q219 675 165.0 626.0Q111 577 76.5 508.0Q42 439 42 354Z"/><path transform="translate(3652.0,0)" d="M34 712V698H126V14H34V0H234V14H142V641H144L594 0H621V698H713V712H513V698H605V236H603L270 712Z"/><path transform="translate(4853.0,0)" d="M272 389V698Q283 699 294.0 700.0Q305 701 316 701Q354 701 378.5 691.0Q403 681 417.0 660.5Q431 640 437.0 608.5Q443 577 443 533Q443 506 439.5 480.0Q436 454 423.0 433.5Q410 413 384.0 401.0Q358 389 313 389ZM272 14V375H330Q380 375 407.5 354.5Q435 334 448.5 306.0Q462 278 465.0 249.5Q468 221 468 204Q468 143 458.5 105.5Q449 68 431.0 47.0Q413 26 387.5 18.5Q362 11 330 11Q299 11 272 14ZM127 698V14H35V0H186Q228 0 269.5 -1.0Q311 -2 353 -2Q391 -2 439.0 6.5Q487 15 529.5 37.0Q572 59 601.5 97.0Q631 135 631 193Q631 246 608.0 281.0Q585 316 550.0 337.5Q515 359 473.0 369.0Q431 379 392 382V386Q416 389 450.5 399.0Q485 409 517.0 428.0Q549 447 571.5 476.5Q594 506 594 549Q594 597 571.0 629.0Q548 661 512.5 680.0Q477 699 434.0 707.0Q391 715 352 715Q310 715 269.0 713.5Q228 712 186 712H35V698Z"/><path transform="translate(5678.0,0)" d="M272 389V698Q283 699 294.0 700.0Q305 701 316 701Q354 701 378.5 691.0Q403 681 417.0 660.5Q431 640 437.0 608.5Q443 577 443 533Q443 506 439.5 480.0Q436 454 423.0 433.5Q410 413 384.0 401.0Q358 389 313 389ZM272 14V375H330Q380 375 407.5 354.5Q435 334 448.5 306.0Q462 278 465.0 249.5Q468 221 468 204Q468 143 458.5 105.5Q449 68 431.0 47.0Q413 26 387.5 18.5Q362 11 330 11Q299 11 272 14ZM127 698V14H35V0H186Q228 0 269.5 -1.0Q311 -2 353 -2Q391 -2 439.0 6.5Q487 15 529.5 37.0Q572 59 601.5 97.0Q631 135 631 193Q631 246 608.0 281.0Q585 316 550.0 337.5Q515 359 473.0 369.0Q431 379 392 382V386Q416 389 450.5 399.0Q485 409 517.0 428.0Q549 447 571.5 476.5Q594 506 594 549Q594 597 571.0 629.0Q548 661 512.5 680.0Q477 699 434.0 707.0Q391 715 352 715Q310 715 269.0 713.5Q228 712 186 712H35V698Z"/><path transform="translate(6503.0,0)" d="M205 354Q205 433 212.0 499.0Q219 565 241.0 613.0Q263 661 305.0 687.5Q347 714 417 714Q492 714 534.5 685.5Q577 657 598.0 608.5Q619 560 623.5 496.5Q628 433 628 363Q628 285 622.5 218.5Q617 152 596.0 103.5Q575 55 533.0 27.5Q491 0 417 0Q361 0 320.5 16.0Q280 32 254.5 72.5Q229 113 217.0 181.5Q205 250 205 354ZM735 -213V-199Q709 -199 693.5 -196.5Q678 -194 667.5 -187.0Q657 -180 649.5 -168.5Q642 -157 632 -139Q613 -105 587.5 -82.0Q562 -59 512 -54Q481 -51 461.0 -48.0Q441 -45 426.5 -40.5Q412 -36 402.5 -29.0Q393 -22 383 -11Q398 -14 417 -14Q492 -14 559.5 15.5Q627 45 678.5 96.0Q730 147 760.5 214.5Q791 282 791 357Q791 443 758.5 511.5Q726 580 673.5 628.0Q621 676 553.5 702.0Q486 728 417 728Q353 728 286.0 701.5Q219 675 165.0 626.0Q111 577 76.5 508.0Q42 439 42 354Q42 285 67.0 223.0Q92 161 135.5 113.0Q179 65 236.5 33.0Q294 1 359 -8Q372 -22 388.0 -42.5Q404 -63 418 -86Q440 -125 462.0 -148.0Q484 -171 517.5 -184.0Q551 -197 602.5 -203.0Q654 -209 735 -213Z"/></g></g>
  <g fill="#f6efe3" transform="translate(290,540) scale(0.06137398534943576)" opacity="0.92"><g transform="scale(1,-1)"><path transform="translate(0,0)" d="M657 508V712H641Q638 698 631.0 694.5Q624 691 610 691Q597 691 578.0 697.0Q559 703 535.5 709.5Q512 716 484.5 722.0Q457 728 425 728Q361 728 294.5 701.5Q228 675 174.0 626.0Q120 577 85.5 508.0Q51 439 51 354Q51 276 82.0 209.0Q113 142 164.5 92.5Q216 43 284.0 14.5Q352 -14 425 -14Q457 -14 486.0 -8.5Q515 -3 539.5 3.5Q564 10 583.0 15.5Q602 21 614 21Q628 21 635.0 16.5Q642 12 647 0H663V212H647Q638 171 619.0 133.0Q600 95 572.0 65.5Q544 36 507.5 18.0Q471 0 426 0Q370 0 329.5 16.0Q289 32 263.5 72.0Q238 112 226.0 180.0Q214 248 214 352Q214 431 220.0 497.5Q226 564 247.5 612.0Q269 660 311.0 687.0Q353 714 426 714Q480 714 516.5 694.5Q553 675 577.5 644.5Q602 614 617.5 577.5Q633 541 644 508Z"/><path transform="translate(1142.0,0)" d="M205 354Q205 433 212.0 499.0Q219 565 241.0 613.0Q263 661 305.0 687.5Q347 714 417 714Q492 714 534.5 685.5Q577 657 598.0 608.5Q619 560 623.5 496.5Q628 433 628 363Q628 285 622.5 218.5Q617 152 596.0 103.5Q575 55 533.0 27.5Q491 0 417 0Q361 0 320.5 16.0Q280 32 254.5 72.5Q229 113 217.0 181.5Q205 250 205 354ZM42 354Q42 276 73.0 209.0Q104 142 155.5 92.5Q207 43 275.0 14.5Q343 -14 417 -14Q492 -14 559.5 15.5Q627 45 678.5 96.0Q730 147 760.5 214.5Q791 282 791 357Q791 443 758.5 511.5Q726 580 673.5 628.0Q621 676 553.5 702.0Q486 728 417 728Q353 728 286.0 701.5Q219 675 165.0 626.0Q111 577 76.5 508.0Q42 439 42 354Z"/><path transform="translate(2395.0,0)" d="M34 712V698H126V14H34V0H234V14H142V698H144L391 0H407L653 698H655V14H564V0H892V14H800V698H892V712H642L466 214H464L291 712Z"/><path transform="translate(3741.0,0)" d="M34 712V698H126V14H34V0H234V14H142V698H144L391 0H407L653 698H655V14H564V0H892V14H800V698H892V712H642L466 214H464L291 712Z"/><path transform="translate(5087.0,0)" d="M32 712V698H125V231Q125 186 135.0 142.0Q145 98 176.5 63.5Q208 29 267.0 7.5Q326 -14 423 -14Q483 -14 524.0 -0.5Q565 13 592.0 34.5Q619 56 633.0 83.0Q647 110 654.0 137.0Q661 164 662.0 188.5Q663 213 663 229V698H756V712H556V698H647V228Q647 213 646.0 190.5Q645 168 639.0 142.5Q633 117 620.0 91.5Q607 66 583.0 45.5Q559 25 522.5 12.5Q486 0 432 0Q377 0 344.5 21.5Q312 43 295.5 78.0Q279 113 274.5 157.5Q270 202 270 249V698H362V712Z"/><path transform="translate(6285.0,0)" d="M34 712V698H126V14H34V0H234V14H142V641H144L594 0H621V698H713V712H513V698H605V236H603L270 712Z"/><path transform="translate(7446.0,0)" d="M39 712V698H131V14H39V0H368V14H276V698H368V712Z"/><path transform="translate(8273.0,0)" d="M280 698V14H188V0H517V14H425V698H461Q498 698 527.0 690.5Q556 683 579.0 664.5Q602 646 620.0 613.0Q638 580 653 529H666V712H39V529H52Q67 580 85.0 613.0Q103 646 126.0 664.5Q149 683 178.0 690.5Q207 698 244 698Z"/><path transform="translate(9398.0,0)" d="M-15 712V698H63L295 293V14H203V0H533V14H440V331L633 698H720V712H529V698H616L432 349L228 698H307V712Z"/></g></g>
</svg>